<?xml version="1.0" encoding="utf-8"?>
<!-- Generator: Adobe Illustrator 19.2.0, SVG Export Plug-In . SVG Version: 6.00 Build 0)  -->
<svg version="1.1" id="Capa_1" xmlns="http://www.w3.org/2000/svg" xmlns:xlink="http://www.w3.org/1999/xlink" x="0px" y="0px"
	 viewBox="0 0 109.1 102.4" style="enable-background:new 0 0 109.1 102.4;" xml:space="preserve">
<style type="text/css">
	.st0{fill:#FFFFFF;}
</style>
<title>sad</title>
<path class="st0" d="M93.4,11.2C81.6,1.7,65.1-1,49.6,0.3C38.4,1.7,27.2,4.9,18.5,11C-10.8,31.4-3,77.7,26.2,95
	c14.8,9.1,34.4,9.8,49.9,2.2s27.6-23.4,31.8-40.7C111.5,39.7,106.5,21.7,93.4,11.2z M70.2,27.7h-0.9c-2.2,0-4.3-0.1-6.5,0
	c-3,0.1-5.2,1.2-5.3,4.9c-0.1,2.7-0.1,8.9-0.1,8.9h10h2.4c-0.6,4.3-1.1,8.4-1.7,12.5H57.4l-0.1,31.3H44.2L44.3,54H33.5V41.5h10.8v-1
	c0-2.5,0-5,0-7.5c0-1.6,0.2-3.2,0.4-4.8c0.6-3.8,2.6-7.1,5.7-9.3c2.8-1.9,6.1-2.9,9.5-2.9c2.2,0,4.5,0.1,6.7,0.2
	c1.2,0.1,2.4,0.2,3.6,0.4L70.2,27.7z"/>
</svg>
