<?xml version="1.0" encoding="utf-8"?>
<!-- Generator: Adobe Illustrator 19.2.0, SVG Export Plug-In . SVG Version: 6.00 Build 0)  -->
<svg version="1.1" id="Capa_1" xmlns="http://www.w3.org/2000/svg" xmlns:xlink="http://www.w3.org/1999/xlink" x="0px" y="0px"
	 viewBox="0 0 109.1 102.4" style="enable-background:new 0 0 109.1 102.4;" xml:space="preserve">
<style type="text/css">
	.st0{fill:#FFFFFF;}
</style>
<title>asd</title>
<path class="st0" d="M70.3,26.7c-5.1-0.8-24.4-0.8-29.8-0.2s-8.8,3.8-9.6,9C30,41,30.2,61.6,30.8,65.8c0.5,4.1,3.5,7.5,7.5,8.5
	c4.5,1.3,26.3,1,31.2,0.5c5.3-0.6,8.8-3.8,9.7-9s0.7-24.6,0.2-29.5C78.8,31,75.6,27.5,70.3,26.7z M55,66
	c-8.5-0.1-15.3-7.1-15.2-15.6c0.1-8.5,7.1-15.3,15.6-15.2c8.4,0.1,15.2,7,15.2,15.4C70.5,59.2,63.5,66.1,55,66C55,66,55,66,55,66z
	 M71.2,38.3c-2,0-3.6-1.7-3.5-3.6s1.7-3.6,3.6-3.5c2,0,3.6,1.6,3.5,3.6C74.8,36.7,73.2,38.3,71.2,38.3
	C71.2,38.3,71.2,38.3,71.2,38.3L71.2,38.3z M65.1,50.7c0,5.5-4.5,10-10,10s-10-4.5-10-10s4.5-10,10-10S65.1,45.2,65.1,50.7z
	 M93.4,11.2C81.6,1.7,65.1-1,49.6,0.3C38.4,1.7,27.2,4.9,18.5,11C-10.8,31.4-3,77.7,26.2,95c14.8,9.1,34.4,9.8,49.9,2.2
	s27.5-23.4,31.8-40.7C111.5,39.7,106.5,21.7,93.4,11.2z M84.4,68.1c-1.8,6.8-6.3,10.9-13.3,12c-5.3,0.8-28.7,0.9-33.5-0.3
	c-6.9-1.8-11-6.2-12.1-13.1c-0.8-5.1-1-28.6,0.4-33.7c1.9-6.6,6.3-10.5,13.1-11.6c5.9-0.9,22.8-0.6,29.9-0.2
	c4.1,0.1,8.1,1.7,11.1,4.5c2.8,2.7,4.6,6.4,4.9,10.3C85.4,40.5,85.8,62.8,84.4,68.1L84.4,68.1z"/>
</svg>
