<?xml version="1.0" encoding="utf-8"?>
<!-- Generator: Adobe Illustrator 19.2.0, SVG Export Plug-In . SVG Version: 6.00 Build 0)  -->
<svg version="1.1" id="Capa_1" xmlns="http://www.w3.org/2000/svg" xmlns:xlink="http://www.w3.org/1999/xlink" x="0px" y="0px"
	 viewBox="0 0 109.1 102.4" style="enable-background:new 0 0 109.1 102.4;" xml:space="preserve">
<style type="text/css">
	.st0{fill:#FFFFFF;}
</style>
<title>rrss</title>
<path class="st0" d="M93.4,11.2C81.6,1.7,65.1-1,49.6,0.3C38.4,1.7,27.2,4.9,18.5,11C-10.8,31.4-3,77.7,26.2,95
	c14.8,9.1,34.4,9.8,49.9,2.2s27.5-23.4,31.8-40.7C111.5,39.7,106.6,21.7,93.4,11.2z M39.7,72.8H28.2l0.1-34.3h11.5L39.7,72.8z
	 M34.1,33.8c-3.5,0.1-6.5-2.7-6.6-6.2c0.1-3.6,3.1-6.3,6.7-6.2c3.5-0.1,6.5,2.7,6.7,6.2C40.6,31.1,37.6,33.9,34.1,33.8L34.1,33.8z
	 M82.8,72.9H71.3V56.2c0-4-0.1-9.1-5.9-9.1s-6.9,4.3-6.9,8.8v17H46.9L47,38.5h11v4.7h0.2c1.5-2.7,5.3-5.5,10.9-5.5
	c11.6,0,13.8,7.2,13.7,16.4L82.8,72.9z"/>
</svg>
