<?xml version="1.0" encoding="utf-8"?>
<!-- Generator: Adobe Illustrator 19.2.0, SVG Export Plug-In . SVG Version: 6.00 Build 0)  -->
<svg version="1.1" id="Capa_1" xmlns="http://www.w3.org/2000/svg" xmlns:xlink="http://www.w3.org/1999/xlink" x="0px" y="0px"
	 viewBox="0 0 109.1 102.4" style="enable-background:new 0 0 109.1 102.4;" xml:space="preserve">
<style type="text/css">
	.st0{fill:#FFFFFF;}
</style>
<title>asdasdasd</title>
<path class="st0" d="M93.4,11.2C81.6,1.7,65.1-1,49.6,0.3C38.4,1.6,27.2,4.9,18.4,11C-10.8,31.4-3,77.7,26.2,95
	c14.8,9.1,34.4,9.8,49.9,2.2s27.6-23.4,31.8-40.7C111.5,39.7,106.6,21.7,93.4,11.2z M89.6,33c-1.4,1.7-3,3.3-4.8,4.6
	c-0.1,0.1-0.2,0.2-0.2,0.4c0.1,2,0,3.9-0.3,5.9c-0.5,4.1-1.7,8.1-3.5,11.8c-1.8,3.9-4.2,7.4-7.2,10.5c-4.9,5.1-11.3,8.7-18.3,10.1
	c-2.4,0.5-4.9,0.8-7.4,0.9c-7.5,0.2-14.9-1.8-21.2-5.8l-0.3-0.2c4.5,0.5,9.1-0.1,13.3-1.8c2.3-0.9,4.4-2.2,6.3-3.7
	c-5.7-0.2-10.6-3.9-12.3-9.3c1.9,0.4,3.8,0.3,5.7-0.2c0.1,0,0.1-0.1,0.2-0.1c-3.6-0.8-6.7-3-8.6-6.1c-1.3-2.1-2-4.6-1.9-7.1
	c1.8,1,3.8,1.6,5.9,1.6c-2.8-1.9-4.7-4.8-5.4-8.1c-0.8-3.3-0.2-6.7,1.5-9.6c6.7,8.3,16.7,13.4,27.3,14c-0.1-0.5-0.2-1-0.2-1.5
	c-0.4-3,0.3-6.1,2-8.7c2-3.2,5.3-5.4,9-6c4.3-0.8,8.6,0.6,11.6,3.7c0.2,0.2,0.5,0.3,0.7,0.2c2.7-0.6,5.3-1.6,7.7-3l0.2-0.1h0.1
	c-1,3-3,5.6-5.7,7.2c2.6-0.3,5-1,7.4-2l0,0.1C90.6,31.7,90.1,32.4,89.6,33L89.6,33z"/>
</svg>
