<svg id="Capa_1" data-name="Capa 1" xmlns="http://www.w3.org/2000/svg" viewBox="0 0 311.44 130.93"><defs><style>.cls-1{fill:#fff;}</style></defs><title>URV_logo-ok</title><path class="cls-1" d="M890.71,225.05h2.54v11.17c0,3.25,1.31,5.23,4.41,5.23s4.35-2,4.35-5.23V225.05h2.54v11.17c0,4.82-2.43,7.48-6.89,7.48s-6.94-2.66-6.94-7.51V225.05Zm17.71,5.07h1.51l0.79,2a5,5,0,0,1,4.33-2.38c2.95,0,4.46,1.77,4.46,4.82v8.74H917.1V235c0-2.1-.79-3.07-2.61-3.07-2.69,0-3.69,2.28-3.69,4.87v6.53h-2.38V230.12ZM923.28,225h2.66v2.64h-2.66V225Zm0.13,5.12h2.43v13.17H923.4V230.12Zm4.64,0h2.69l3.77,10.3,3.72-10.3h2.56l-5.07,13.17h-2.51Zm26.11,7.23h-9.53c0,2.41,1.31,4.35,3.74,4.35,1.82,0,2.87-.82,3.2-2.28h2.36c-0.41,2.69-2.59,4.23-5.56,4.23-3.94,0-6.15-2.84-6.15-6.89s2.33-7,6.12-7,5.84,2.84,5.84,6.58C954.18,236.61,954.15,237,954.15,237.35Zm-5.84-5.69c-2.26,0-3.56,1.64-3.66,3.89h7.12C951.74,233.33,950.67,231.66,948.31,231.66Zm15,0.51c-2.48,0-3.61,1.92-3.61,4.25v6.87H957.3V230.12h1.41l0.9,2.15a4.27,4.27,0,0,1,3.87-2.36,5.8,5.8,0,0,1,1.2.1c-0.05.77-.13,1.51-0.18,2.28A4.37,4.37,0,0,0,963.32,232.17Zm8.61,11.48c-3,0-5.61-1.38-5.76-4.38h2.33c0.21,1.72,1.51,2.46,3.43,2.46s3-.69,3-2-1.2-1.79-3.18-2.1c-2.92-.33-5.25-1.23-5.25-3.87s2.38-4,5.23-4c3.33,0,5.18,1.77,5.3,4.07l-2.23,0c-0.21-1.31-1.15-2.18-3-2.18s-2.95.79-2.95,1.9c0,1.33.72,1.54,3.28,2,3.51,0.51,5.17,1.49,5.17,4.07S975.16,243.65,971.93,243.65ZM980.42,225h2.66v2.64h-2.66V225Zm0.13,5.12H983v13.17h-2.43V230.12Zm7.17,2h-2.28v-2h2.28v-2.74l2.41-1.18v3.92h3.53v2h-3.53v7.3c0,1.31.49,2,1.74,2a9.17,9.17,0,0,0,1.9-.21l0.2,1.9a8.73,8.73,0,0,1-2.51.38c-2.77,0-3.74-1.61-3.74-4.25V232.1Zm17.3,11.2-0.54-1.9a5.13,5.13,0,0,1-4.43,2.23c-2.69,0-4.56-1.51-4.56-4,0-4.3,4.79-4.28,8.86-4.46v-0.79c0-1.77-.92-2.72-2.84-2.72s-2.9.77-3.08,2.15c-0.77-.05-1.51-0.1-2.28-0.13,0.33-2.67,2.36-3.92,5.41-3.92,3.36,0,5.15,1.61,5.15,5.12v8.43H1005Zm-0.69-6.35c-4.33.15-6.43,0.33-6.43,2.61,0,1.33.92,2.13,2.49,2.13a3.61,3.61,0,0,0,3.94-3.77v-1Zm7-4.84h-2.28v-2h2.28v-2.74l2.41-1.18v3.92h3.53v2h-3.53v7.3c0,1.31.49,2,1.74,2a9.17,9.17,0,0,0,1.9-.21l0.2,1.9a8.73,8.73,0,0,1-2.51.38c-2.77,0-3.74-1.61-3.74-4.25V232.1ZM901.8,268.92c-0.51-1.15-2.82-6.25-3.33-7.38h-4.92v7.38H891V250.7h6.64c4.84,0,6.53,2.56,6.53,5.36A5,5,0,0,1,900.9,261c1.2,2.64,2.46,5.28,3.66,7.92H901.8Zm-4.15-16h-4.1v6.48h4.25c2.74,0,3.84-1.23,3.84-3.3C901.65,254.14,900.49,252.88,897.65,252.88Zm15.22,16.4c-4.07,0-6.18-2.89-6.18-6.94s2.26-7,6.2-7,6.18,2.92,6.18,6.94S916.89,269.28,912.87,269.28Zm0-11.84c-2.77,0-3.72,2.36-3.72,4.87s0.92,4.92,3.72,4.92,3.74-2.38,3.74-4.92S915.69,257.44,912.87,257.44Zm7.64-1.69h2.69L927,266l3.72-10.3h2.56l-5.07,13.17h-2.51Zm14.84-5.12H938v2.64h-2.66v-2.64Zm0.13,5.12h2.43v13.17h-2.43V255.75Zm12.45,2c-2.49,0-3.61,1.92-3.61,4.25v6.87H941.9V255.75h1.41l0.9,2.15a4.27,4.27,0,0,1,3.87-2.36,5.8,5.8,0,0,1,1.2.1c-0.05.77-.13,1.51-0.18,2.28A4.37,4.37,0,0,0,947.92,257.8Zm12.35,11.12-0.54-1.9a5.13,5.13,0,0,1-4.43,2.23c-2.69,0-4.56-1.51-4.56-4,0-4.3,4.79-4.28,8.86-4.46V260c0-1.77-.92-2.72-2.84-2.72s-2.9.77-3.08,2.15c-0.77-.05-1.51-0.1-2.28-0.13,0.33-2.67,2.36-3.92,5.41-3.92,3.36,0,5.15,1.61,5.15,5.12v8.43h-1.69Zm-0.69-6.35c-4.33.15-6.43,0.33-6.43,2.61,0,1.33.92,2.13,2.49,2.13a3.61,3.61,0,0,0,3.94-3.77v-1Zm13-11.94h2.66v2.64h-2.66v-2.64Zm0.13,5.12h2.43v13.17h-2.43V255.75Zm11.48-5.07H987l5.2,14.88,5.23-14.88H1000l-6.64,18.24h-2.54Zm17.94-.05h2.66v2.64h-2.66v-2.64Zm0.13,5.12h2.43v13.17h-2.43V255.75Zm12.45,2c-2.49,0-3.61,1.92-3.61,4.25v6.87h-2.41V255.75h1.41l0.9,2.15a4.27,4.27,0,0,1,3.87-2.36,5.8,5.8,0,0,1,1.2.1c-0.05.77-.13,1.51-0.18,2.28A4.37,4.37,0,0,0,1014.75,257.8Zm13.84,2.43c0,2.89-2.36,4.64-5.15,4.64a6,6,0,0,1-2.36-.49,1.51,1.51,0,0,0-1,1.28,1.18,1.18,0,0,0,1.18,1.08,2.46,2.46,0,0,0,.87.1h2.92a6.24,6.24,0,0,1,3.36.84,4.7,4.7,0,0,1,.64.56,3.51,3.51,0,0,1,.95,2.51,3.58,3.58,0,0,1-1,2.54c-1.18,1.23-3.23,1.64-5.25,1.64s-3.77-.28-5.07-1.59a3.21,3.21,0,0,1-.92-2.33,3.13,3.13,0,0,1,1.77-2.84,2.49,2.49,0,0,1-1.49-2.18,2.84,2.84,0,0,1,1.56-2.56,4.43,4.43,0,0,1-1.31-3.23c0-3,2.28-4.69,5.12-4.69a5.45,5.45,0,0,1,3,.87,1.53,1.53,0,0,0,1.08-1.64,1.62,1.62,0,0,0-.1-0.36h1.77a2.24,2.24,0,0,1,.1.67v0.18a2.53,2.53,0,0,1-1.59,2.36A4.34,4.34,0,0,1,1028.59,260.23Zm-1.23,9.25a3.84,3.84,0,0,0-2.66-.77h-2.9a5.54,5.54,0,0,0-.64.13,2,2,0,0,0-1.36,2,1.8,1.8,0,0,0,.56,1.36,5.13,5.13,0,0,0,3.36.9c1.1,0,2.72-.1,3.56-0.92a1.92,1.92,0,0,0,.59-1.38A1.75,1.75,0,0,0,1027.36,269.48Zm-3.92-12.17a2.88,2.88,0,1,0,3,2.9A2.78,2.78,0,0,0,1023.44,257.31Zm9.46-6.69h2.66v2.64h-2.66v-2.64Zm0.13,5.12h2.43v13.17H1033V255.75Zm6.41,13.17V250.52h2.38v18.39h-2.38Zm6.71-18.29h2.66v2.64h-2.66v-2.64Zm0.13,5.12h2.43v13.17h-2.43V255.75Zm-155.56-97.7h12v33.1c0,8,3,12.45,10.05,12.45s10-4.41,10-12.45v-33.1h12.07v33.18c0,14.93-8,23.13-22,23.13-14.15,0-22-8.28-22-23.2v-33.1Zm84.39,55.07c-2.86-7-6-13.46-8.9-20.11h-9.82v20.11H944.47v-55H966c15.39,0,20.42,8.9,20.42,17.17,0,7.27-2.86,12.38-8.66,15.16l10.52,22.66H975.09Zm-9.28-44.63h-9.44v14h10.05c5.65,0,8-2.78,8-7.12C974.4,171.82,971.92,168.49,965.81,168.49Zm23.59-10.44h13l12.38,37.36,12.61-37.36h12.45l-19.26,55.07h-11.83ZM740.2,172.89c25.15-34.11,103.85-40.33,122.79,9.75-9.43-13.14-25.71-14.82-42.65,15.78C797.3,183.29,766.76,165.89,740.2,172.89Zm86.29,30c45.26,37,47.66-6.18,30.79-21C844.45,170.65,832.79,186.44,826.49,202.89Zm-11.32,4.16c-31.16-15.4-77.26-25.18-77.79,8-0.56,14.21,9.4,41.84,34.6,31.94C789.25,240.35,804.72,222.32,815.17,207.05Zm7.61,4.33c-11.71,23.41-27.42,51.45-51.84,60.49,39.59,16.77,83.24-8.32,94.34-52.93C855,228.76,834.92,218.72,822.78,211.38Z" transform="translate(-737.36 -146.18)"/></svg>