<?xml version="1.0" encoding="utf-8"?>
<!-- Generator: Adobe Illustrator 18.0.0, SVG Export Plug-In . SVG Version: 6.00 Build 0)  -->
<!DOCTYPE svg PUBLIC "-//W3C//DTD SVG 1.1//EN" "http://www.w3.org/Graphics/SVG/1.1/DTD/svg11.dtd">
<svg version="1.1" id="Capa_1" xmlns="http://www.w3.org/2000/svg" xmlns:xlink="http://www.w3.org/1999/xlink" x="0px" y="0px"
	 viewBox="0 0 129 122" enable-background="new 0 0 129 122" xml:space="preserve">
<linearGradient id="SVGID_1_" gradientUnits="userSpaceOnUse" x1="47.7815" y1="-61.1881" x2="112.7789" y2="-146.2378" gradientTransform="matrix(0.9998 -2.179468e-02 2.179468e-02 0.9998 -5.1111 146.1418)">
	<stop  offset="0" style="stop-color:#DA2C25"/>
	<stop  offset="1" style="stop-color:#F2914B"/>
</linearGradient>
<path fill="url(#SVGID_1_)" d="M8,25.6c23-31.1,94.8-36.8,112.1,8.9c-8.6-12-23.5-13.5-38.9,14.4C60.1,35.1,32.2,19.2,8,25.6z
	 M86.7,53c41.3,33.7,43.5-5.6,28.1-19.2C103.1,23.6,92.5,38,86.7,53z M76.4,56.8c-28.4-14.1-70.5-23-71,7.3
	C4.9,77.1,14,102.3,37,93.3C52.7,87.2,66.9,70.7,76.4,56.8z M83.3,60.8c-10.7,21.4-25,47-47.3,55.2c36.1,15.3,76-7.6,86.1-48.3
	C112.8,76.6,94.4,67.5,83.3,60.8z"/>
</svg>
