<?xml version="1.0" encoding="utf-8"?>
<!-- Generator: Adobe Illustrator 19.2.0, SVG Export Plug-In . SVG Version: 6.00 Build 0)  -->
<svg version="1.1" id="Capa_1" xmlns="http://www.w3.org/2000/svg" xmlns:xlink="http://www.w3.org/1999/xlink" x="0px" y="0px"
	 viewBox="0 0 109.1 102.4" style="enable-background:new 0 0 109.1 102.4;" xml:space="preserve">
<style type="text/css">
	.st0{fill:#FFFFFF;}
</style>
<title>sadasd</title>
<path class="st0" d="M47,40.3l18.9,9.8L47,59.8L47,40.3z M108,56.5c-4.3,17.3-16.3,33.1-31.9,40.7S41,104.1,26.2,95
	C-3,77.7-10.8,31.4,18.5,11c8.8-6.1,19.9-9.4,31.1-10.7c15.5-1.4,32,1.4,43.8,10.9C106.6,21.7,111.5,39.7,108,56.5z M83.3,35.1
	c-0.8-2.1-2.5-3.7-4.6-4.4c-3.7-1.4-36.1-1.6-46.6-0.5c-2,0.2-3.8,1.1-5.1,2.7c-3.9,4.5-3.4,27.7-1.4,33.2c0.7,2.2,2.5,3.9,4.7,4.5
	c5.1,1.7,45.4,1.8,49.3-0.2c1.4-0.7,2.6-1.9,3.3-3.3C85.5,61.6,85.5,40.8,83.3,35.1z"/>
</svg>
